<svg width="1500" height="1500" viewBox="0 0 1500 1500" fill="none" xmlns="http://www.w3.org/2000/svg">
<path d="M750 302C690.905 302 632.389 313.64 577.792 336.254C523.196 358.869 473.588 392.016 431.802 433.802C390.016 475.588 356.869 525.196 334.254 579.792C311.64 634.389 300 692.905 300 752C300 811.095 311.64 869.611 334.254 924.208C356.869 978.804 390.016 1028.41 431.802 1070.2C473.588 1111.98 523.196 1145.13 577.792 1167.75C632.389 1190.36 690.905 1202 750 1202L750 752L750 302Z" stroke="white"/>
<path d="M750 602C769.698 602 789.204 598.12 807.403 590.582C825.601 583.044 842.137 571.995 856.066 558.066C869.995 544.137 881.044 527.601 888.582 509.403C896.12 491.204 900 471.698 900 452C900 432.302 896.12 412.796 888.582 394.597C881.044 376.399 869.995 359.863 856.066 345.934C842.137 332.005 825.601 320.956 807.403 313.418C789.204 305.88 769.698 302 750 302L750 452L750 602Z" stroke="white"/>
<path d="M750 1202C769.698 1202 789.204 1198.12 807.403 1190.58C825.601 1183.04 842.137 1171.99 856.066 1158.07C869.995 1144.14 881.044 1127.6 888.582 1109.4C896.12 1091.2 900 1071.7 900 1052C900 1032.3 896.12 1012.8 888.582 994.597C881.044 976.399 869.995 959.863 856.066 945.934C842.137 932.005 825.601 920.956 807.403 913.418C789.204 905.88 769.698 902 750 902L750 1052L750 1202Z" stroke="white"/>
<path d="M750 150V1350" stroke="white"/>
<circle cx="750" cy="552" r="50" stroke="white"/>
<circle cx="750" cy="652" r="50" stroke="white"/>
<circle cx="750" cy="752" r="50" stroke="white"/>
<circle cx="750" cy="852" r="50" stroke="white"/>
<circle cx="750" cy="952" r="50" stroke="white"/>
<path d="M750 602C803.043 602 853.914 623.071 891.421 660.579C928.929 698.086 950 748.957 950 802C950 855.043 928.929 905.914 891.421 943.421C853.914 980.929 803.043 1002 750 1002L750 802V602Z" stroke="white"/>
<path d="M800.5 507.967C834.743 516.88 866.328 534.777 891.775 560.225C929.376 597.826 950.5 648.824 950.5 702C950.5 753.303 930.837 802.577 895.686 839.751C889.009 865.514 875.56 889.28 856.42 908.42C840.481 924.358 821.336 936.351 800.5 943.773V1350H799.5V944.124C783.732 949.616 767.015 952.5 750 952.5H749.5V501.5H750C766.837 501.5 783.456 503.62 799.5 507.708V150H800.5V507.967ZM799.5 896.291C783.614 900.339 767.166 902.457 750.5 902.498V951.497C767.347 951.441 783.894 948.539 799.5 943.063V896.291ZM894.253 841.251C893.435 842.098 892.61 842.94 891.775 843.774C866.328 869.222 834.743 887.119 800.5 896.032V942.71C821.067 935.329 839.966 923.46 855.713 907.713C874.292 889.134 887.472 866.168 894.253 841.251ZM799.5 844.124C783.886 849.562 767.342 852.44 750.5 852.496V901.498C767.169 901.456 783.618 899.326 799.5 895.258V844.124ZM891.412 753.497C883.965 773.946 872.104 792.736 856.42 808.42C840.481 824.358 821.336 836.351 800.5 843.773V894.998C834.474 886.107 865.809 868.326 891.067 843.067C892.325 841.81 893.562 840.537 894.782 839.25C897.888 827.181 899.5 814.674 899.5 802C899.5 785.339 896.717 768.964 891.412 753.497ZM750.5 851.497C767.347 851.441 783.894 848.539 799.5 843.063V660.937C784.466 655.661 768.557 652.776 752.349 652.521L750.5 652.504V851.497ZM800.5 842.71C821.067 835.329 839.966 823.46 855.713 807.713C871.587 791.839 883.521 772.761 890.889 752C883.521 731.239 871.587 712.161 855.713 696.287C839.966 680.54 821.067 668.671 800.5 661.29V842.71ZM800.5 560.226C821.336 567.648 840.481 579.642 856.42 595.58C884.644 623.804 900.5 662.085 900.5 702C900.5 719.195 897.554 736.085 891.948 752C897.554 767.915 900.5 784.805 900.5 802C900.5 814.148 899.028 826.144 896.188 837.752C930.393 800.92 949.5 752.446 949.5 702C949.5 649.089 928.481 598.346 891.067 560.933C865.809 535.674 834.475 517.891 800.5 509.001V560.226ZM800.5 660.226C821.336 667.648 840.481 679.642 856.42 695.58C872.103 711.264 883.965 730.053 891.412 750.502C896.717 735.035 899.5 718.661 899.5 702C899.5 662.35 883.75 624.324 855.713 596.287C839.966 580.54 821.067 568.671 800.5 561.29V660.226ZM750.5 651.503C767.342 651.559 783.886 654.437 799.5 659.875V560.937C783.894 555.461 767.347 552.56 750.5 552.504V651.503ZM750.5 551.503C767.342 551.559 783.886 554.437 799.5 559.875V508.741C783.618 504.673 767.169 502.544 750.5 502.502V551.503Z" fill="white"/>
<path d="M800.5 842.71C821.067 835.329 839.966 823.46 855.713 807.713C871.587 791.839 883.521 772.761 890.889 752C883.521 731.239 871.587 712.161 855.713 696.287C839.966 680.54 821.067 668.671 800.5 661.29V842.71Z" fill="white"/>
<path d="M894.253 841.251C893.435 842.098 892.61 842.94 891.775 843.774C866.328 869.222 834.743 887.119 800.5 896.032V942.71C821.067 935.329 839.966 923.46 855.713 907.713C874.292 889.134 887.472 866.168 894.253 841.251Z" fill="white"/>
<path d="M700.5 354.53C716.72 352.531 733.24 351.5 750 351.5C971.19 351.5 1150.5 530.81 1150.5 752C1150.5 973.19 971.19 1152.5 750 1152.5C733.24 1152.5 716.72 1151.47 700.5 1149.47V1350H699.5V1149.34C502.15 1124.51 349.5 956.085 349.5 752C349.5 547.915 502.15 379.484 699.5 354.654V150H700.5V354.53ZM750 352.5C733.239 352.5 716.719 353.534 700.5 355.538V609.875C716.268 604.383 732.985 601.5 750 601.5H750.5V902.5H750C732.985 902.5 716.268 899.616 700.5 894.124V1148.46C716.719 1150.47 733.239 1151.5 750 1151.5C970.638 1151.5 1149.5 972.638 1149.5 752C1149.5 531.362 970.638 352.5 750 352.5ZM699.5 355.662C502.704 380.486 350.5 548.468 350.5 752C350.5 955.532 502.704 1123.51 699.5 1148.34V893.773C678.664 886.351 659.519 874.358 643.58 858.42C615.356 830.196 599.5 791.915 599.5 752C599.5 712.085 615.356 673.804 643.58 645.58C659.519 629.642 678.664 617.648 699.5 610.226V355.662ZM749.5 602.503C732.653 602.559 716.106 605.46 700.5 610.936V893.062C716.106 898.538 732.652 901.44 749.5 901.496V602.503ZM699.5 611.289C678.933 618.67 660.034 630.54 644.287 646.287C616.25 674.324 600.5 712.35 600.5 752C600.5 791.65 616.25 829.676 644.287 857.713C660.034 873.46 678.933 885.328 699.5 892.709V611.289Z" fill="white"/>
<path d="M699.5 355.662C502.704 380.486 350.5 548.468 350.5 752C350.5 955.532 502.704 1123.51 699.5 1148.34V893.773C678.664 886.351 659.519 874.358 643.58 858.42C615.356 830.196 599.5 791.915 599.5 752C599.5 712.085 615.356 673.804 643.58 645.58C659.519 629.642 678.664 617.648 699.5 610.226V355.662Z" fill="white"/>
<circle cx="750" cy="302" r="50" stroke="white"/>
<circle cx="750" cy="1202" r="50" stroke="white"/>
</svg>
